<?xml version="1.0" encoding="utf-8"?>
<!-- Generator: Adobe Illustrator 19.1.0, SVG Export Plug-In . SVG Version: 6.00 Build 0)  -->
<svg version="1.1" id="Layer_1" xmlns="http://www.w3.org/2000/svg" xmlns:xlink="http://www.w3.org/1999/xlink" x="0px" y="0px"
	 viewBox="0 0 271.8 342.6" style="enable-background:new 0 0 271.8 342.6;" xml:space="preserve">
<style type="text/css">
	.st0{clip-path:url(#SVGID_2_);fill:#F68D5E;}
	.st1{clip-path:url(#SVGID_2_);fill:#F15F29;}
</style>
<g>
	<defs>
		<rect id="SVGID_1_" width="271.8" height="342.6"/>
	</defs>
	<clipPath id="SVGID_2_">
		<use xlink:href="#SVGID_1_"  style="overflow:visible;"/>
	</clipPath>
	<path class="st0" d="M63.3,95.3c-8.3,0-28.9,1.6-44.8,16.4C6.4,123,0.1,139,0,159.1v1.1c0.3,42.5,37.9,57.5,57.9,59.4l80.5,0.1
		v-28.7H60.1c-4.5-0.6-31.3-5.2-31.3-31.3c0-12,3.1-21,9.2-26.8c8.7-8.2,21.7-8.8,25.6-8.8c0.7,0,1.1,0,1.1,0l45,0V95.4H66.2
		C65.5,95.3,64.6,95.3,63.3,95.3"/>
	<path class="st1" d="M138.4,95.4h33.7c14.1,0,32.9-3.5,32.9-33.5c0-7.8-2.7-33.1-37.8-33.1c-9.5,0-16.7,2.4-21.4,7.2
		c-7.2,7.3-7.4,18.4-7.4,18.5V95.4z M124,342.6c-7.9,0-14.4-6.4-14.4-14.4V54.5c0-2.2,0.2-23.2,15.8-38.9C135.7,5.3,149.8,0,167.3,0
		c52.5,0,66.6,38.9,66.6,61.8c0,38.4-23.6,62.3-61.7,62.3h-33.7v204.2C138.4,336.2,132,342.6,124,342.6"/>
	<path class="st1" d="M219.8,312.3h-81.4v-28.7h80.8c5.6-0.4,23.9-3.9,23.9-32.2c0-5.1-1.5-30.7-31.1-31.8h-73.5v-28.7h73.8
		c24.1,0.5,59.6,17,59.6,60.5c0,58.5-51.2,60.9-51.7,60.9"/>
</g>
</svg>
